<svg width="42" height="42" viewBox="0 0 42 42" fill="none" xmlns="http://www.w3.org/2000/svg">
<g clip-path="url(#clip0_178_249)">
<path d="M34.1723 8.39828C36.2933 12.9623 35.812 18.3348 33.4635 22.701C31.5368 26.2833 28.6615 29.246 26.292 32.5255C25.2088 34.027 24.115 35.588 23.3713 37.2978C23.1245 37.8665 22.911 38.4493 22.701 39.0338C22.4893 39.6165 22.309 40.2115 22.106 40.7978C21.9153 41.3473 21.693 41.9948 21.0088 42H20.9965C20.181 41.9983 19.9833 41.0725 19.7803 40.4478C19.2833 38.9183 18.7635 37.45 17.997 36.029C17.1045 34.377 15.9933 32.8493 14.8645 31.3548L34.1723 8.39828ZM14.9538 13.4838L8.02553 21.721C9.29253 24.416 11.2123 26.7313 13.0498 29.036C13.4826 29.5785 13.9125 30.1245 14.3395 30.674L23.0615 20.3053L23.0108 20.3228C19.964 21.3745 16.5515 19.8135 15.3248 16.8455C15.1573 16.4425 15.0346 16.0223 14.959 15.5925C14.8488 14.8278 14.8243 14.2608 14.952 13.496L14.9538 13.4838ZM9.61104 5.51078L9.60578 5.51778C6.19853 9.83328 5.61403 15.8078 7.65104 20.8653L16.0248 10.9095L15.9233 10.822L9.61104 5.51078ZM25.6568 0.763033L18.9403 8.74828L18.9875 8.73078C21.7875 7.76653 24.9428 8.99328 26.3725 11.5763C26.6805 12.1345 26.9378 12.7715 27.0323 13.405C27.1513 14.1855 27.181 14.7578 27.0533 15.54L27.048 15.568L33.761 7.58628C32.007 4.38645 29.1231 1.95548 25.6725 0.768283L25.6568 0.763033ZM16.5655 10.269L24.7835 0.498783L24.7013 0.477783C23.4853 0.157944 22.2329 -0.00264881 20.9755 3.30402e-05C18.9396 0.0192077 16.9296 0.459101 15.0718 1.29209C13.214 2.12509 11.5485 3.33318 10.1798 4.84053L10.1518 4.87203L16.5655 10.269Z" fill="white"/>
</g>
<defs>
<clipPath id="clip0_178_249">
<rect width="42" height="42" fill="white"/>
</clipPath>
</defs>
</svg>
