<svg width="50" height="50" viewBox="0 0 50 50" fill="none" xmlns="http://www.w3.org/2000/svg">
<path d="M27.087 41.1321C27.0363 35.2132 28.3995 30.3227 35.8373 30.6304C46.4502 3.58594 3.18051 4.6167 14.7154 30.4685C18.2118 30.251 24.0095 32.3335 23.0196 41.7723M48 37.8408L3.08354 44.9357L48 37.8408ZM2.27087 10.1079L17.5283 12.9382L2.27087 10.1079ZM35.4616 15.6572L48 17.4876L35.4616 15.6572Z" fill="#2D8F33"/>
<path d="M48 37.8408L3.08354 44.9357M2.27087 10.1079L17.5283 12.9382M35.4616 15.6572L48 17.4876M27.087 41.1321C27.0363 35.2132 28.3995 30.3227 35.8373 30.6304C46.4502 3.58594 3.18051 4.6167 14.7154 30.4685C18.2118 30.251 24.0095 32.3335 23.0196 41.7723L27.087 41.1321Z" stroke="white" stroke-width="3" stroke-linecap="round" stroke-linejoin="round"/>
<path d="M43.0563 2.271H7.21457C4.49554 2.271 2.27087 4.49566 2.27087 7.21469V43.0565C2.27087 45.7755 4.49554 48.0002 7.21457 48.0002H43.0563C45.7754 48.0002 48 45.7755 48 43.0565V7.21469C48 4.49566 45.7754 2.271 43.0563 2.271Z" stroke="white" stroke-width="3" stroke-linecap="round" stroke-linejoin="round"/>
</svg>
