<svg width="53" height="52" viewBox="0 0 53 52" fill="none" xmlns="http://www.w3.org/2000/svg">
<g clip-path="url(#clip0_178_220)">
<path fill-rule="evenodd" clip-rule="evenodd" d="M29.1666 6.5C30.2599 6.49965 31.3129 6.91255 32.1145 7.65591C32.9161 8.39927 33.4071 9.41816 33.4891 10.5083L33.5 10.8333V41.1667H35.6666V20.5833C35.6665 20.3298 35.7554 20.0842 35.9177 19.8894C36.08 19.6947 36.3055 19.563 36.555 19.5173L36.75 19.5H40C41.0932 19.4997 42.1462 19.9125 42.9478 20.6559C43.7494 21.3993 44.2405 22.4182 44.3225 23.5083L44.3333 23.8333V41.1667H46.5C47.0522 41.1673 47.5834 41.3787 47.9849 41.7578C48.3865 42.1369 48.6281 42.6551 48.6605 43.2064C48.6929 43.7576 48.5135 44.3005 48.1591 44.724C47.8046 45.1475 47.3018 45.4196 46.7535 45.4848L46.5 45.5H7.49996C6.94772 45.4994 6.41656 45.2879 6.015 44.9088C5.61343 44.5297 5.37178 44.0116 5.33942 43.4603C5.30706 42.909 5.48642 42.3662 5.84087 41.9427C6.19531 41.5192 6.69809 41.2471 7.24646 41.1818L7.49996 41.1667H9.66663V10.8333C9.66628 9.74008 10.0792 8.68711 10.8225 7.88548C11.5659 7.08385 12.5848 6.59283 13.675 6.51083L14 6.5H29.1666ZM24.8333 32.5H18.3333V36.8333H24.8333V32.5ZM24.8333 23.8333H18.3333V28.1667H24.8333V23.8333ZM24.8333 15.1667H18.3333V19.5H24.8333V15.1667Z" fill="#135EC8"/>
</g>
<defs>
<clipPath id="clip0_178_220">
<rect width="51.8847" height="51.8847" fill="white" transform="translate(0.906982)"/>
</clipPath>
</defs>
</svg>
