<svg width="48" height="48" viewBox="0 0 48 48" fill="none" xmlns="http://www.w3.org/2000/svg">
<path d="M15.7404 4.55518H32.0738C38.296 4.55518 43.3515 9.61073 43.3515 15.833V32.1663C43.3515 35.1573 42.1633 38.0259 40.0484 40.1409C37.9334 42.2559 35.0648 43.4441 32.0738 43.4441H15.7404C9.5182 43.4441 4.46265 38.3885 4.46265 32.1663V15.833C4.46265 12.8419 5.65084 9.97335 7.76583 7.85836C9.88083 5.74337 12.7494 4.55518 15.7404 4.55518ZM15.3515 8.44406C13.495 8.44406 11.7145 9.18156 10.4018 10.4943C9.08903 11.8071 8.35154 13.5875 8.35154 15.4441V32.5552C8.35154 36.4246 11.4821 39.5552 15.3515 39.5552H32.4626C34.3192 39.5552 36.0996 38.8177 37.4124 37.5049C38.7252 36.1922 39.4626 34.4117 39.4626 32.5552V15.4441C39.4626 11.5746 36.3321 8.44406 32.4626 8.44406H15.3515ZM34.1154 11.3607C34.76 11.3607 35.3783 11.6168 35.8341 12.0726C36.2899 12.5284 36.546 13.1467 36.546 13.7913C36.546 14.4359 36.2899 15.0541 35.8341 15.5099C35.3783 15.9658 34.76 16.2218 34.1154 16.2218C33.4708 16.2218 32.8526 15.9658 32.3968 15.5099C31.9409 15.0541 31.6849 14.4359 31.6849 13.7913C31.6849 13.1467 31.9409 12.5284 32.3968 12.0726C32.8526 11.6168 33.4708 11.3607 34.1154 11.3607ZM23.9071 14.2774C26.4856 14.2774 28.9585 15.3017 30.7817 17.125C32.605 18.9482 33.6293 21.4211 33.6293 23.9996C33.6293 26.5781 32.605 29.051 30.7817 30.8743C28.9585 32.6975 26.4856 33.7218 23.9071 33.7218C21.3286 33.7218 18.8557 32.6975 17.0324 30.8743C15.2092 29.051 14.1849 26.5781 14.1849 23.9996C14.1849 21.4211 15.2092 18.9482 17.0324 17.125C18.8557 15.3017 21.3286 14.2774 23.9071 14.2774ZM23.9071 18.1663C22.36 18.1663 20.8763 18.7809 19.7823 19.8748C18.6883 20.9688 18.0738 22.4525 18.0738 23.9996C18.0738 25.5467 18.6883 27.0304 19.7823 28.1244C20.8763 29.2184 22.36 29.833 23.9071 29.833C25.4542 29.833 26.9379 29.2184 28.0319 28.1244C29.1258 27.0304 29.7404 25.5467 29.7404 23.9996C29.7404 22.4525 29.1258 20.9688 28.0319 19.8748C26.9379 18.7809 25.4542 18.1663 23.9071 18.1663Z" fill="white"/>
</svg>
