<svg width="248" height="36" viewBox="0 0 248 36" fill="none" xmlns="http://www.w3.org/2000/svg">
<path d="M130.091 25.4703V29.9999H112.857V6.00366H130.091V10.5333H117.78V15.5698H129.585V20.0994H117.78V25.4739H130.091V25.4703Z" fill="#F4900B"/>
<path d="M147.769 6.00372H153.47L144.633 21.6185V29.9999L139.71 30V21.6185L130.872 6.00379L136.573 6.00372L142.138 16.582H142.206L147.771 6.00372H147.769Z" fill="#F4900B"/>
<path d="M167.586 25.4703V20.0958H155.781V15.5662L167.586 15.5661V10.5296L155.275 10.5297V6.00007L172.51 6V29.9963H155.275V25.4667H167.586V25.4704V25.4703Z" fill="#F4900B"/>
<path d="M180.878 6.00372L187.893 15.298L194.908 6.00372H199.428V30H194.706V13.6413L187.961 22.3276H187.825L181.08 13.6413V30H176.357V6.00372H180.878Z" fill="#0922B5"/>
<path d="M206.685 30H201.525L210.531 6.00372H215.726L224.732 30H219.436L217.986 25.8763H208.137L206.687 30H206.685ZM213.094 12.0873H213.026L209.721 21.4496H216.399L213.094 12.0873Z" fill="#0922B5"/>
<path d="M235.817 13.8452L241.383 6.00372H247.386L238.684 17.7997L247.859 29.9999L241.687 30L235.852 21.7196L229.95 30H223.778L232.952 17.7998L224.15 6.00379L230.254 6.00372L235.819 13.8452H235.817Z" fill="#0922B5"/>
<path d="M39.9388 21.8207C41.7214 21.0683 42.5508 19.0333 41.7882 17.272C41.1544 15.8307 41.2807 14.2281 42.0605 12.7843C43.4544 10.2045 46.4824 8.58245 49.4237 8.26977C52.823 7.87646 56.5442 9.13457 58.3441 12.1981C57.6607 9.76248 55.7147 7.72997 53.3801 6.63057C44.7568 2.35055 33.5709 8.87808 35.0366 18.8136C35.195 21.1882 37.7081 22.7736 39.9413 21.816L39.939 21.8209L39.9388 21.8207Z" fill="#F4900B"/>
<path d="M55.352 12.6646C53.5694 13.4171 52.74 15.452 53.5026 17.2134C54.1364 18.6546 54.0101 20.2573 53.2303 21.7011C51.8363 24.2809 48.8084 25.9029 45.8671 26.2156C42.4678 26.6089 38.7466 25.3508 36.9467 22.2873C37.6301 24.7229 39.5785 26.7554 41.9107 27.8548C50.534 32.1348 61.7199 25.6073 60.2542 15.6718C60.0957 13.2972 57.5827 11.7117 55.3495 12.6694L55.3518 12.6645L55.352 12.6646Z" fill="#0922B5"/>
<path d="M34.2082 4.08254C38.4592 2.58499 42.9776 1.68106 47.5703 1.31958C47.3598 1.30253 47.1495 1.28538 46.939 1.27316C47.1568 1.25847 47.3747 1.25117 47.5926 1.23895C42.9776 0.992218 38.2908 1.29268 33.676 2.26255C25.5899 3.95794 18.093 8.00837 12.1014 13.6271C13.0027 15.1442 13.9955 16.6075 15.0774 18.0074C19.9474 11.7095 26.5431 6.7405 34.2083 4.08254H34.2082H34.2082Z" fill="#F4900B"/>
<path d="M3.23269 35.9435C5.38917 36.3002 7.3995 34.8051 7.69661 32.6822C7.92928 31.7222 8.23637 30.789 8.57554 29.8484C9.50643 27.2515 10.6924 24.7475 12.1012 22.3803C10.6578 21.0294 9.28614 19.5733 7.99131 18.0172C4.8396 21.8281 2.12107 26.0764 0.306253 30.6814C-0.666697 32.9167 0.781592 35.5771 3.23269 35.946V35.9436V35.9435Z" fill="#F4900B"/>
<path d="M47.5698 1.32204C52.165 1.68115 56.6809 2.58508 60.932 4.08499C68.5328 6.75755 75.2177 11.6703 80.0677 17.9878C81.1423 16.5977 82.1326 15.1467 83.0313 13.6369C78.8397 9.70129 73.9474 6.50589 68.5576 4.4099C61.9397 1.76662 54.631 0.87245 47.5946 1.24141C47.7977 1.25117 47.9982 1.26339 48.2011 1.27561C47.9906 1.2903 47.7802 1.30736 47.5697 1.32204H47.5698Z" fill="#0922B5"/>
<path d="M83.0243 22.3875C84.9604 25.6587 86.54 29.1472 87.4684 32.8068C87.8348 35.1154 90.3255 36.5787 92.5563 35.7799C94.6682 35.0568 95.6907 32.7043 94.8341 30.6814C93.8982 28.2213 92.6206 25.8859 91.2367 23.6604C90.0062 21.6866 88.6345 19.7908 87.1391 17.9977C87.0029 18.1614 86.8693 18.325 86.7331 18.4863C85.5744 19.8568 84.3341 21.1614 83.0219 22.3901L83.0243 22.3876V22.3875Z" fill="#0922B5"/>
<path d="M47.5701 1.32206C47.7806 1.305 47.991 1.28785 48.2014 1.27563C47.9983 1.26341 47.7978 1.25365 47.5949 1.24142C47.3771 1.25365 47.1592 1.26104 46.9413 1.27563C47.1518 1.29032 47.3622 1.30737 47.5727 1.32206H47.5702H47.5701Z" fill="#0922B5"/>
<path d="M46.9389 34.7269C47.1469 34.7122 47.3548 34.6951 47.5629 34.6804C38.3156 33.9696 29.2515 30.9989 22.079 25.1773C19.4793 23.0764 17.1248 20.6579 15.0774 18.0073C13.9979 16.6099 13.0026 15.1442 12.1014 13.627C10.1578 10.3559 8.65006 6.83811 7.67212 3.19321C7.30568 0.884593 4.81502 -0.578747 2.58421 0.220102C0.383266 0.979912 -0.572487 3.41796 0.368386 5.4896C1.30917 7.88369 2.54705 10.1679 3.90391 12.3421C5.15909 14.36 6.52584 16.2508 7.994 18.0146C9.28633 19.5708 10.6605 21.0268 12.1039 22.3777C21.5046 31.1821 33.9432 35.5965 47.6149 34.7635C47.3895 34.7513 47.1668 34.7391 46.944 34.7269H46.9389Z" fill="#0922B5"/>
<path d="M91.9082 0.0567254C89.7517 -0.29992 87.7414 1.19516 87.4443 3.31807C87.2116 4.27809 86.9045 5.2113 86.5653 6.15189C85.632 8.75358 84.4435 11.2626 83.0298 13.6347C82.1311 15.1444 81.1407 16.5956 80.0662 17.9856C75.1962 24.2884 68.5981 29.2574 60.9305 31.9177C56.6771 33.4153 52.1561 34.3216 47.5609 34.6807C47.7738 34.6977 47.9842 34.7124 48.1972 34.7271C48.0016 34.7418 47.8035 34.7516 47.608 34.7638C52.2007 35.0032 56.8652 34.7028 61.4603 33.7353C69.539 32.0399 77.0308 27.9967 83.0199 22.3854C84.3321 21.1565 85.5725 19.8545 86.7312 18.4816C86.8674 18.3204 87.001 18.1567 87.1372 17.993C90.2914 14.177 93.0148 9.92878 94.8321 5.31893C95.8051 3.08365 94.3568 0.423222 91.9057 0.0543539L91.9082 0.0567254Z" fill="#F4900B"/>
<path d="M47.5651 34.6805C47.3571 34.6976 47.1492 34.7122 46.9411 34.7269C47.1639 34.7416 47.3893 34.7538 47.612 34.7636C47.8077 34.7514 48.0032 34.7391 48.2013 34.7269C47.9884 34.7122 47.778 34.6976 47.565 34.6805H47.5651Z" fill="#F4900B"/>
</svg>
