<svg width="135" height="24" viewBox="0 0 135 24" fill="none" xmlns="http://www.w3.org/2000/svg">
<path d="M17.2343 19.4702V23.9997H0V0.00367737H17.2343V4.53322H4.92353V9.56973H16.7284V14.0993H4.92353V19.4738H17.2343V19.4702Z" fill="white"/>
<path d="M34.9126 0.0037384H40.6134L31.7763 15.6184V23.9997L26.8528 23.9998V15.6184L18.0156 0.00380538L23.7164 0.0037384L29.2816 10.5819H29.3494L34.9145 0.0037384H34.9126Z" fill="white"/>
<path d="M54.7287 19.4701V14.0957H42.9239V9.56612L54.7287 9.56605V4.52955L42.418 4.52962V7.0323e-05L59.6522 0V23.9961H42.418V19.4665H54.7287V19.4702V19.4701Z" fill="white"/>
<path d="M68.0203 0.0037384L75.0354 9.29793L82.0505 0.0037384H86.5707V23.9998H81.8488V7.6412L75.1032 16.3274H74.9676L68.222 7.6412V23.9998H63.5V0.0037384H68.0203Z" fill="white"/>
<path d="M93.828 23.9998H88.668L97.6737 0.0037384H102.869L111.874 23.9998H106.579L105.129 19.8762H95.2797L93.8297 23.9998H93.828ZM100.236 6.08728H100.169L96.8635 15.4494H103.541L100.236 6.08728Z" fill="white"/>
<path d="M122.959 7.8451L128.524 0.0037384H134.528L125.826 11.7997L135.001 23.9997L128.829 23.9998L122.994 15.7194L117.092 23.9998H110.92L120.094 11.7997L111.292 0.00380538L117.396 0.0037384L122.961 7.8451H122.959Z" fill="white"/>
</svg>
