<svg width="53" height="52" viewBox="0 0 53 52" fill="none" xmlns="http://www.w3.org/2000/svg">
<path d="M15.2186 23.3263C18.3317 29.4443 23.3472 34.4382 29.4653 37.573L34.2214 32.8169C34.8051 32.2332 35.6698 32.0386 36.4265 32.298C38.8478 33.0979 41.4636 33.5303 44.1443 33.5303C45.3333 33.5303 46.3062 34.5031 46.3062 35.6921V43.237C46.3062 44.4261 45.3333 45.3989 44.1443 45.3989C23.8444 45.3989 7.39264 28.9471 7.39264 8.64722C7.39264 7.45819 8.36548 6.48535 9.5545 6.48535H17.121C18.3101 6.48535 19.2829 7.45819 19.2829 8.64722C19.2829 11.3495 19.7153 13.9438 20.5152 16.3651C20.753 17.1217 20.58 17.9648 19.9747 18.5702L15.2186 23.3263Z" fill="#135EC8"/>
</svg>
