<svg width="244" height="270" viewBox="0 0 244 270" fill="none" xmlns="http://www.w3.org/2000/svg">
<g filter="url(#filter0_f_172_575)">
<path d="M180.948 148.142C180.66 144.663 179.836 141.252 179.432 137.823C178.973 134.412 178.811 130.949 179.538 127.684C180.276 124.427 181.991 121.487 184.413 119.208C186.83 116.916 189.779 115.184 192.879 113.802C195.967 112.413 199.235 111.415 202.554 111.226C205.871 111.009 209.189 111.794 212.108 113.433C215.035 115.072 217.564 117.437 219.864 119.999C222.214 122.53 224.272 125.361 226.656 127.908C224.62 125.083 222.739 122.166 220.603 119.378C218.443 116.629 215.975 114 212.884 112.106C209.83 110.165 206.107 109.23 202.473 109.363C198.826 109.512 195.328 110.579 192.074 112.006C188.852 113.485 185.712 115.322 183.113 117.878C180.54 120.435 178.646 123.792 178.038 127.379C177.386 130.962 177.794 134.56 178.486 137.983C179.22 141.416 180.222 144.736 180.948 148.142Z" fill="#FFA1CB"/>
<path d="M78.0465 232.155C83.8572 234.76 90.3395 235.673 96.7084 235.761C103.11 235.86 109.489 234.95 115.705 233.505C121.916 232.005 127.965 229.887 133.745 227.216C139.554 224.606 145.061 221.377 150.252 217.746C147.442 219.212 144.652 220.691 141.783 222.01C138.935 223.362 136.061 224.653 133.136 225.804C127.308 228.156 121.344 230.153 115.248 231.59C113.724 231.951 112.203 232.327 110.661 232.592L108.354 233.024L106.032 233.368C104.49 233.641 102.929 233.751 101.374 233.937C100.596 234.018 99.8141 234.039 99.0339 234.101C98.2532 234.157 97.4727 234.226 96.6906 234.229C93.5617 234.365 90.4277 234.244 87.3059 233.949C84.1763 233.682 81.0779 233.08 78.0465 232.155Z" fill="#FFA1CB"/>
<g opacity="0.3">
<path d="M268.545 54.7272C291.793 40.7562 316.72 30.5282 328.78 36.6799C340.839 42.832 352.8 69.8529 353.235 91.9234C353.669 113.993 339.248 126.841 315.761 138.675C292.274 150.508 274.801 153.216 255.949 141.453C237.097 129.691 222.123 110.466 222.477 96.665C222.831 82.8631 250.393 65.635 268.545 54.7272Z" fill="#B8C1E0"/>
</g>
<g opacity="0.3">
<path d="M98.6119 129.953C72.64 137.771 48.31 149.349 44.7569 162.412C41.204 175.475 53.1656 202.496 69.2122 217.655C85.2586 232.814 104.464 230.775 129.015 221.344C153.565 211.912 167.316 200.798 171.283 178.933C175.249 157.07 171.084 133.06 160.629 124.044C150.174 115.027 118.89 123.849 98.6119 129.953Z" fill="#B8C1E0"/>
</g>
<g opacity="0.39">
<path d="M162.983 178.296C166.371 159.618 162.813 139.107 153.882 131.405C144.95 123.702 118.224 131.239 100.901 136.453C100.901 136.453 126.326 134.238 144.204 147.743C159.735 159.475 162.983 178.296 162.983 178.296Z" fill="white"/>
</g>
<path d="M219.976 74.7914C205.17 88.27 188.576 97.1067 186.229 98.3268C183.747 99.2445 166.05 105.588 146.118 107.487C119.244 110.048 42.2743 127.603 4.15054 163.152L19.2523 185.91C19.2523 185.91 25.6607 180.919 33.7133 190.999C41.7661 201.079 61.1901 231.978 75.9171 237.668C90.6441 243.357 120.048 243.266 153.349 222.78C186.65 202.293 187.83 170.89 187.849 157.955C187.868 145.519 179.837 125.375 194.096 118.528L194.108 118.56C194.407 118.4 194.701 118.27 194.996 118.131C195.297 118.006 195.59 117.876 195.909 117.762L195.895 117.732C210.55 111.779 220.063 131.267 229.282 139.614C238.87 148.296 262.91 168.534 300.464 157.654C338.019 146.775 357.853 125.068 363.542 110.341C369.231 95.6139 359.415 60.4612 357.367 47.7232C355.319 34.9855 363.322 33.5969 363.322 33.5969L356.627 7.11689C304.68 11.4409 239.938 56.618 219.976 74.7914ZM171.283 178.933C167.317 200.797 153.565 211.912 129.015 221.344C104.465 230.775 85.2588 232.814 69.2126 217.655C53.1662 202.496 41.2043 175.475 44.7572 162.411C48.3102 149.348 72.6399 137.771 98.6122 129.953C118.891 123.849 150.174 115.027 160.629 124.044C171.084 133.06 175.249 157.07 171.283 178.933ZM353.235 91.923C353.669 113.993 339.249 126.841 315.761 138.674C292.274 150.508 274.801 153.216 255.949 141.453C237.097 129.69 222.124 110.466 222.478 96.6646C222.831 82.8633 250.394 65.6349 268.545 54.7268C291.794 40.7558 316.721 30.5278 328.78 36.6795C340.839 42.8316 352.801 69.8525 353.235 91.923Z" fill="black"/>
<path d="M129.722 223.182C108.481 231.343 86.2851 236.495 67.8594 219.087C51.2733 203.418 39.1221 175.624 42.8562 161.895C47.2933 145.581 79.338 133.698 98.0445 128.068C125.097 119.924 151.558 113.619 161.916 122.553C172.563 131.734 177.422 156.125 173.221 179.285C169.331 200.736 156.231 211.691 137.392 220.03C134.931 221.119 132.37 222.165 129.722 223.182ZM99.1797 131.84C68.6757 141.022 49.5335 152.353 46.6578 162.929C43.3046 175.259 55.1465 201.657 70.5657 216.223C84.1764 229.082 100.906 230.032 128.308 219.505C154.319 209.516 165.814 198.043 169.344 178.582C173.316 156.685 169.017 133.879 159.342 125.536C149.195 116.784 114.146 127.335 99.1797 131.84Z" fill="#383838"/>
<path d="M254.906 143.124C234.936 130.663 220.148 110.668 220.508 96.6142C220.859 82.9403 243.315 67.5899 267.531 53.0383C284.277 42.9741 314.615 27.242 329.675 34.9249C342.349 41.3901 354.756 69.0712 355.205 91.8837C355.703 117.228 336.968 130.195 316.647 140.433C314.112 141.711 311.62 142.902 309.157 143.992C290.319 152.331 273.4 154.664 254.906 143.124ZM269.56 56.415C256.164 64.4661 224.79 83.3184 224.447 96.7146C224.121 109.486 238.111 128 256.992 139.781C273.771 150.251 289.999 149.45 314.875 136.914C341.09 123.707 351.634 110.683 351.265 91.9614C350.848 70.7544 339.267 44.241 327.885 38.4341C321.106 34.9766 308.79 37.0771 292.754 44.176C285.692 47.3027 277.908 51.3991 269.56 56.415Z" fill="#383838"/>
<g opacity="0.67">
<path d="M21.1352 170.495C22.7838 169.765 23.5287 167.837 22.7989 166.189C22.069 164.54 20.1408 163.795 18.4922 164.525C16.8435 165.255 16.0986 167.183 16.8285 168.832C17.5583 170.48 19.4865 171.225 21.1352 170.495Z" fill="#383838"/>
<mask id="mask0_172_575" style="mask-type:luminance" maskUnits="userSpaceOnUse" x="16" y="164" width="8" height="7">
<path d="M21.1352 170.495C22.7838 169.765 23.5287 167.837 22.7989 166.189C22.069 164.54 20.1408 163.795 18.4922 164.525C16.8435 165.255 16.0986 167.183 16.8285 168.832C17.5583 170.48 19.4865 171.225 21.1352 170.495Z" fill="white"/>
</mask>
<g mask="url(#mask0_172_575)">
<path d="M18.46 164.539L15.507 165.846L18.15 171.817L21.103 170.509L18.46 164.539Z" fill="#383838"/>
</g>
<mask id="mask1_172_575" style="mask-type:luminance" maskUnits="userSpaceOnUse" x="16" y="164" width="8" height="7">
<path d="M21.1352 170.495C22.7838 169.765 23.5287 167.837 22.7989 166.189C22.069 164.54 20.1408 163.795 18.4922 164.525C16.8435 165.255 16.0986 167.183 16.8285 168.832C17.5583 170.48 19.4865 171.225 21.1352 170.495Z" fill="white"/>
</mask>
<g mask="url(#mask1_172_575)">
<path d="M21.4129 163.232L18.4598 164.539L21.1028 170.51L24.0559 169.203L21.4129 163.232Z" fill="#383838"/>
</g>
<mask id="mask2_172_575" style="mask-type:luminance" maskUnits="userSpaceOnUse" x="16" y="164" width="8" height="7">
<path d="M21.1352 170.495C22.7838 169.765 23.5287 167.837 22.7989 166.189C22.069 164.54 20.1408 163.795 18.4922 164.525C16.8435 165.255 16.0986 167.183 16.8285 168.832C17.5583 170.48 19.4865 171.225 21.1352 170.495Z" fill="white"/>
</mask>
<g mask="url(#mask2_172_575)">
<path d="M21.4772 163.204L21.4126 163.232L24.0556 169.203L24.1202 169.174L21.4772 163.204Z" fill="#F7931E"/>
</g>
</g>
</g>
<defs>
<filter id="filter0_f_172_575" x="0.150513" y="3.11694" width="369.143" height="241.775" filterUnits="userSpaceOnUse" color-interpolation-filters="sRGB">
<feFlood flood-opacity="0" result="BackgroundImageFix"/>
<feBlend mode="normal" in="SourceGraphic" in2="BackgroundImageFix" result="shape"/>
<feGaussianBlur stdDeviation="2" result="effect1_foregroundBlur_172_575"/>
</filter>
</defs>
</svg>
