<svg width="48" height="48" viewBox="0 0 48 48" fill="none" xmlns="http://www.w3.org/2000/svg">
<path d="M37.6154 10.2136C35.8324 8.41326 33.709 6.98577 31.3689 6.01432C29.0287 5.04287 26.5186 4.54689 23.9848 4.55528C13.3681 4.55528 4.71537 13.2081 4.71537 23.8247C4.71537 27.2275 5.60981 30.5331 7.28204 33.4497L4.65078 43.1102C4.61034 43.2587 4.74575 43.3953 4.8946 43.3562L14.7681 40.7608C17.5876 42.297 20.757 43.1136 23.9848 43.1136C34.6015 43.1136 43.2543 34.4608 43.2543 23.8442C43.2543 18.6914 41.2515 13.8497 37.6154 10.2136ZM23.9848 39.8469C21.107 39.8469 18.2876 39.0692 15.8181 37.6108L15.2348 37.2608L9.50316 38.7672C9.35426 38.8064 9.21883 38.6696 9.25938 38.5211L10.782 32.9442L10.3931 32.3414C8.79393 29.7885 7.94495 26.8372 7.94315 23.8247C7.94315 14.9969 15.1376 7.8025 23.9654 7.8025C28.2431 7.8025 32.2681 9.47473 35.282 12.5081C36.7746 13.9933 37.9574 15.7602 38.7619 17.7062C39.5663 19.6522 39.9763 21.7385 39.9682 23.8442C40.007 32.6719 32.8126 39.8469 23.9848 39.8469ZM32.7737 27.8692C32.2876 27.6358 29.9154 26.4692 29.4876 26.2942C29.0404 26.1386 28.7293 26.0608 28.3987 26.5275C28.0681 27.0136 27.1543 28.1025 26.882 28.4136C26.6098 28.7442 26.3181 28.7831 25.832 28.5303C25.3459 28.2969 23.7904 27.7719 21.9626 26.1386C20.5237 24.8553 19.5709 23.2803 19.2793 22.7942C19.007 22.3081 19.2404 22.0553 19.4931 21.8025C19.707 21.5886 19.9793 21.2386 20.2126 20.9664C20.4459 20.6942 20.5431 20.4803 20.6987 20.1692C20.8543 19.8386 20.7765 19.5664 20.6598 19.3331C20.5431 19.0997 19.5709 16.7275 19.182 15.7553C18.7931 14.8219 18.3848 14.9386 18.0931 14.9192H17.1598C16.8293 14.9192 16.3237 15.0358 15.8765 15.5219C15.4487 16.0081 14.2043 17.1747 14.2043 19.5469C14.2043 21.9192 15.9348 24.2136 16.1681 24.5247C16.4015 24.8553 19.5709 29.7164 24.3931 31.7969C25.5404 32.3025 26.4348 32.5942 27.1348 32.8081C28.282 33.1775 29.332 33.1192 30.1681 33.0025C31.1015 32.8664 33.0265 31.8358 33.4154 30.7081C33.8237 29.5803 33.8237 28.6275 33.6876 28.4136C33.5515 28.1997 33.2598 28.1025 32.7737 27.8692Z" fill="white"/>
</svg>
