<svg width="50" height="50" viewBox="0 0 50 50" fill="none" xmlns="http://www.w3.org/2000/svg">
<path d="M20.7751 31.1983L31.4975 25.0004L20.7751 18.8025V31.1983ZM44.6577 15.0217C44.9263 15.9927 45.1122 17.2943 45.2362 18.9471C45.3808 20.5999 45.4428 22.0254 45.4428 23.265L45.5668 25.0004C45.5668 29.5249 45.2362 32.8511 44.6577 34.979C44.1412 36.8384 42.943 38.0367 41.0836 38.5532C40.1126 38.8217 38.3359 39.0077 35.6088 39.1316C32.923 39.2762 30.4645 39.3382 28.1919 39.3382L24.907 39.4622C16.2506 39.4622 10.8584 39.1316 8.73047 38.5532C6.8711 38.0367 5.67284 36.8384 5.15634 34.979C4.88777 34.008 4.70183 32.7065 4.57787 31.0537C4.43325 29.4009 4.37127 27.9754 4.37127 26.7358L4.24731 25.0004C4.24731 20.4759 4.57787 17.1497 5.15634 15.0217C5.67284 13.1624 6.8711 11.9641 8.73047 11.4476C9.70148 11.179 11.4782 10.9931 14.2053 10.8691C16.8911 10.7245 19.3496 10.6625 21.6221 10.6625L24.907 10.5386C33.5635 10.5386 38.9556 10.8691 41.0836 11.4476C42.943 11.9641 44.1412 13.1624 44.6577 15.0217Z" fill="white"/>
</svg>
